<svg width="152" height="56" viewBox="0 0 152 56" fill="none" xmlns="http://www.w3.org/2000/svg">
<g id="Component 1">
<path id="Vector" d="M50.8774 36.6317H44.6899V19.1772H50.9285C52.6842 19.1772 54.1956 19.5266 55.4626 20.2255C56.7297 20.9186 57.7041 21.9158 58.3859 23.2169C59.0734 24.5181 59.4172 26.0749 59.4172 27.8874C59.4172 29.7056 59.0734 31.2681 58.3859 32.5749C57.7041 33.8817 56.724 34.8845 55.4456 35.5834C54.1729 36.2823 52.6501 36.6317 50.8774 36.6317ZM48.3802 33.4698H50.724C51.8149 33.4698 52.7325 33.2766 53.4768 32.8902C54.2268 32.4982 54.7893 31.8931 55.1643 31.0749C55.545 30.251 55.7354 29.1885 55.7354 27.8874C55.7354 26.5976 55.545 25.5436 55.1643 24.7255C54.7893 23.9073 54.2297 23.305 53.4854 22.9186C52.741 22.5323 51.8234 22.3391 50.7325 22.3391H48.3802V33.4698Z" fill="black"/>
<path id="Vector_2" d="M68.0486 36.8872C66.702 36.8872 65.5429 36.6145 64.5713 36.069C63.6054 35.5179 62.8611 34.7395 62.3383 33.7338C61.8156 32.7224 61.5542 31.5264 61.5542 30.1457C61.5542 28.7991 61.8156 27.6173 62.3383 26.6003C62.8611 25.5832 63.5969 24.7906 64.5457 24.2224C65.5003 23.6542 66.6196 23.3701 67.9037 23.3701C68.7673 23.3701 69.5713 23.5093 70.3156 23.7878C71.0656 24.0605 71.719 24.4724 72.2758 25.0236C72.8383 25.5747 73.2758 26.2679 73.5883 27.1031C73.9008 27.9326 74.0571 28.9042 74.0571 30.0179V31.015H63.0031V28.765H70.6395C70.6395 28.2423 70.5258 27.7792 70.2986 27.3758C70.0713 26.9724 69.756 26.6571 69.3525 26.4298C68.9548 26.1968 68.4917 26.0804 67.9633 26.0804C67.4122 26.0804 66.9236 26.2082 66.4974 26.4639C66.077 26.7139 65.7474 27.052 65.5088 27.4781C65.2702 27.8986 65.148 28.3673 65.1423 28.8843V31.0236C65.1423 31.6713 65.2616 32.2309 65.5003 32.7025C65.7446 33.1741 66.0883 33.5378 66.5315 33.7934C66.9747 34.0491 67.5003 34.177 68.1082 34.177C68.5116 34.177 68.881 34.1201 69.2162 34.0065C69.5514 33.8929 69.8383 33.7224 70.077 33.4951C70.3156 33.2679 70.4974 32.9895 70.6224 32.6599L73.9804 32.8815C73.8099 33.6883 73.4605 34.3929 72.9321 34.9951C72.4094 35.5917 71.7332 36.0576 70.9037 36.3929C70.0798 36.7224 69.1281 36.8872 68.0486 36.8872Z" fill="black"/>
<path id="Vector_3" d="M88.2795 23.5408L83.7028 36.6317H79.6119L75.0352 23.5408H78.8704L81.5892 32.9073H81.7255L84.4357 23.5408H88.2795Z" fill="black"/>
<path id="Vector_4" d="M94.1346 36.6317L89.1403 19.1772H93.1715L96.0607 31.305H96.2056L99.3931 19.1772H102.845L106.024 31.3306H106.177L109.066 19.1772H113.098L108.103 36.6317H104.507L101.183 25.2198H101.047L97.7312 36.6317H94.1346Z" fill="black"/>
<path id="Vector_5" d="M115.005 36.6316V23.5407H118.635V36.6316H115.005ZM116.828 21.8532C116.289 21.8532 115.826 21.6742 115.439 21.3163C115.059 20.9526 114.868 20.518 114.868 20.0123C114.868 19.5123 115.059 19.0833 115.439 18.7254C115.826 18.3617 116.289 18.1799 116.828 18.1799C117.368 18.1799 117.828 18.3617 118.209 18.7254C118.596 19.0833 118.789 19.5123 118.789 20.0123C118.789 20.518 118.596 20.9526 118.209 21.3163C117.828 21.6742 117.368 21.8532 116.828 21.8532Z" fill="black"/>
<path id="Vector_6" d="M132.436 27.2736L129.112 27.4781C129.055 27.194 128.933 26.9383 128.745 26.711C128.558 26.4781 128.311 26.2934 128.004 26.1571C127.703 26.015 127.342 25.944 126.922 25.944C126.359 25.944 125.885 26.0633 125.498 26.302C125.112 26.5349 124.919 26.8474 124.919 27.2395C124.919 27.552 125.044 27.8162 125.294 28.0321C125.544 28.248 125.973 28.4213 126.581 28.552L128.95 29.0292C130.223 29.2906 131.172 29.7111 131.797 30.2906C132.422 30.8701 132.734 31.6315 132.734 32.5747C132.734 33.4326 132.481 34.1855 131.976 34.8332C131.476 35.4809 130.788 35.9866 129.913 36.3503C129.044 36.7082 128.041 36.8872 126.904 36.8872C125.172 36.8872 123.791 36.5264 122.762 35.8048C121.74 35.0775 121.14 34.0889 120.964 32.8389L124.535 32.6514C124.643 33.1798 124.904 33.5832 125.319 33.8616C125.734 34.1343 126.265 34.2707 126.913 34.2707C127.549 34.2707 128.061 34.1486 128.447 33.9042C128.839 33.6542 129.038 33.3332 129.044 32.9412C129.038 32.6116 128.899 32.3417 128.626 32.1315C128.353 31.9156 127.933 31.7508 127.365 31.6372L125.098 31.1855C123.819 30.9298 122.868 30.4866 122.243 29.8559C121.623 29.2253 121.314 28.4213 121.314 27.444C121.314 26.6031 121.541 25.8787 121.995 25.2707C122.456 24.6628 123.101 24.194 123.93 23.8645C124.765 23.5349 125.743 23.3701 126.862 23.3701C128.515 23.3701 129.816 23.7196 130.765 24.4184C131.72 25.1173 132.277 26.069 132.436 27.2736Z" fill="black"/>
<path id="Vector_7" d="M140.986 36.8872C139.64 36.8872 138.48 36.6145 137.509 36.069C136.543 35.5179 135.799 34.7395 135.276 33.7338C134.753 32.7224 134.492 31.5264 134.492 30.1457C134.492 28.7991 134.753 27.6173 135.276 26.6003C135.799 25.5832 136.534 24.7906 137.483 24.2224C138.438 23.6542 139.557 23.3701 140.841 23.3701C141.705 23.3701 142.509 23.5093 143.253 23.7878C144.003 24.0605 144.657 24.4724 145.213 25.0236C145.776 25.5747 146.213 26.2679 146.526 27.1031C146.838 27.9326 146.995 28.9042 146.995 30.0179V31.015H135.941V28.765H143.577C143.577 28.2423 143.463 27.7792 143.236 27.3758C143.009 26.9724 142.694 26.6571 142.29 26.4298C141.892 26.1968 141.429 26.0804 140.901 26.0804C140.35 26.0804 139.861 26.2082 139.435 26.4639C139.015 26.7139 138.685 27.052 138.446 27.4781C138.208 27.8986 138.086 28.3673 138.08 28.8843V31.0236C138.08 31.6713 138.199 32.2309 138.438 32.7025C138.682 33.1741 139.026 33.5378 139.469 33.7934C139.912 34.0491 140.438 34.177 141.046 34.177C141.449 34.177 141.819 34.1201 142.154 34.0065C142.489 33.8929 142.776 33.7224 143.015 33.4951C143.253 33.2679 143.435 32.9895 143.56 32.6599L146.918 32.8815C146.748 33.6883 146.398 34.3929 145.87 34.9951C145.347 35.5917 144.671 36.0576 143.841 36.3929C143.017 36.7224 142.066 36.8872 140.986 36.8872Z" fill="black"/>
<path id="Vector_8" fill-rule="evenodd" clip-rule="evenodd" d="M36.6164 29.1995C36.665 28.6995 36.6899 28.1926 36.6899 27.6799C36.6899 27.3738 36.681 27.0698 36.6635 26.7681H5.71631C5.69881 27.0698 5.68994 27.3738 5.68994 27.6799C5.68994 28.1926 5.71483 28.6995 5.76348 29.1995H36.6164ZM35.8079 32.8465H6.5719C6.87114 33.6932 7.24185 34.506 7.67678 35.2779H34.7031C35.138 34.506 35.5087 33.6932 35.8079 32.8465ZM31.8576 38.925H10.5222C13.3011 41.562 17.0565 43.1799 21.1899 43.1799C25.3233 43.1799 29.0787 41.562 31.8576 38.925ZM6.37122 23.121H36.0086C35.7495 22.2777 35.4203 21.4649 35.0279 20.6897H7.35195C6.95954 21.4649 6.63037 22.2777 6.37122 23.121ZM9.91612 17.0426H32.4637C29.6377 14.0485 25.632 12.1799 21.1899 12.1799C16.7478 12.1799 12.7421 14.0485 9.91612 17.0426Z" fill="black"/>
<path id="Vector_9" fill-rule="evenodd" clip-rule="evenodd" d="M36.6164 29.1995C36.665 28.6995 36.6899 28.1926 36.6899 27.6799C36.6899 27.3738 36.681 27.0698 36.6635 26.7681H5.71631C5.69881 27.0698 5.68994 27.3738 5.68994 27.6799C5.68994 28.1926 5.71483 28.6995 5.76348 29.1995H36.6164ZM35.8079 32.8465H6.5719C6.87114 33.6932 7.24185 34.506 7.67678 35.2779H34.7031C35.138 34.506 35.5087 33.6932 35.8079 32.8465ZM31.8576 38.925H10.5222C13.3011 41.562 17.0565 43.1799 21.1899 43.1799C25.3233 43.1799 29.0787 41.562 31.8576 38.925ZM6.37122 23.121H36.0086C35.7495 22.2777 35.4203 21.4649 35.0279 20.6897H7.35195C6.95954 21.4649 6.63037 22.2777 6.37122 23.121ZM9.91612 17.0426H32.4637C29.6377 14.0485 25.632 12.1799 21.1899 12.1799C16.7478 12.1799 12.7421 14.0485 9.91612 17.0426Z" fill="black"/>
</g>
</svg>
