<svg width="152" height="56" viewBox="0 0 152 56" fill="none" xmlns="http://www.w3.org/2000/svg">
<g id="Component 1">
<path id="Vector" d="M36.9965 14.9692L23.0903 31.6568H35.6058L34.2152 42.7816L48.1214 26.0942H35.6058L36.9965 14.9692Z" fill="black"/>
<path id="Vector_2" d="M67.8085 26.6013V31.749H60.3834V38.7996H54.5493V17.897H69.3683V23.0447H60.3834V26.6013H67.8085Z" fill="black"/>
<path id="Vector_3" d="M77.5054 17.897V38.7996H72.1392V17.897H77.5054Z" fill="black"/>
<path id="Vector_4" d="M86.3601 22.4209C87.1918 22.4209 88.0025 22.608 88.7928 22.9824C89.6042 23.336 90.2698 23.7936 90.7901 24.3552V22.8888H96.1564V38.7998H90.7901V36.1481C90.3946 37.0216 89.7915 37.7599 88.9808 38.3632C88.1694 38.9664 87.1918 39.2678 86.048 39.2678C84.8621 39.2678 83.7492 38.9664 82.7099 38.3632C81.6699 37.7599 80.8168 36.8344 80.1515 35.5865C79.5067 34.3177 79.1841 32.7266 79.1841 30.8131C79.1841 29.0244 79.5067 27.5061 80.1515 26.2582C80.8168 25.0103 81.6909 24.0639 82.7723 23.4191C83.8747 22.7536 85.0704 22.4209 86.3601 22.4209ZM87.4828 27.6622C86.7135 27.6622 86.0683 27.9741 85.5487 28.5981C85.0494 29.222 84.7997 29.9604 84.7997 30.8131C84.7997 31.666 85.0599 32.3836 85.5795 32.9657C86.0999 33.5481 86.7865 33.8395 87.6393 33.8395C88.0965 33.8395 88.5642 33.7249 89.0432 33.4962C89.5208 33.2467 89.9268 32.8825 90.2592 32.4043C90.6134 31.9051 90.7901 31.2707 90.7901 30.5012V28.9724C90.3322 28.5981 89.8125 28.2861 89.2297 28.0365C88.6687 27.7869 88.0859 27.6622 87.4828 27.6622Z" fill="black"/>
<path id="Vector_5" d="M104.48 22.4209C105.52 22.4209 106.477 22.5768 107.35 22.8888C108.244 23.18 108.962 23.5856 109.503 24.1056V28.3173C108.962 27.9845 108.348 27.6725 107.662 27.3814C106.976 27.0694 106.237 26.9134 105.447 26.9134C104.948 26.9134 104.501 27.0174 104.105 27.2254C103.731 27.4126 103.544 27.7141 103.544 28.1301C103.544 28.4213 103.659 28.6397 103.887 28.7853C104.116 28.9309 104.563 29.0868 105.229 29.2532L106.196 29.5028C108.962 30.21 110.345 31.6972 110.345 33.9642C110.345 35.0041 110.033 35.9295 109.409 36.7409C108.806 37.5313 108.005 38.155 107.007 38.6126C106.029 39.0495 104.969 39.2678 103.825 39.2678C102.639 39.2678 101.537 39.1015 100.518 38.7686C99.4987 38.4152 98.6249 37.9886 97.8969 37.4897V33.3091C98.6459 33.7664 99.4882 34.1513 100.424 34.4632C101.381 34.7753 102.234 34.9313 102.983 34.9313C103.586 34.9313 104.023 34.8585 104.293 34.713C104.584 34.5675 104.73 34.3073 104.73 33.933C104.73 33.6417 104.563 33.4234 104.23 33.2779C103.897 33.1115 103.42 32.9241 102.795 32.7162L101.204 32.2169C100.039 31.8635 99.1866 31.3123 98.6459 30.5635C98.1053 29.794 97.8345 28.8581 97.8345 27.7557C97.8345 26.6534 98.1256 25.707 98.7084 24.9167C99.2904 24.1263 100.081 23.5128 101.079 23.076C102.098 22.6392 103.232 22.4209 104.48 22.4209Z" fill="black"/>
<path id="Vector_6" d="M121.414 22.4208C123.037 22.4208 124.357 22.9719 125.376 24.0743C126.416 25.1766 126.936 26.8093 126.936 28.9723V38.7997H121.57L121.539 29.8147C121.539 29.0244 121.321 28.4732 120.884 28.1612C120.447 27.8284 119.958 27.6621 119.417 27.6621C118.835 27.6621 118.347 27.818 117.951 28.13C117.556 28.4212 117.213 28.7748 116.922 29.1907V38.7997H111.555V17.897H116.922V24.9478C117.421 24.2614 118.024 23.6687 118.731 23.1695C119.459 22.6704 120.354 22.4208 121.414 22.4208Z" fill="black"/>
<path id="Vector_7" d="M126.666 18.0188V18.6826H125.867V20.7021H125.109V18.6826H124.309V18.0188H126.666Z" fill="black"/>
<path id="Vector_8" d="M129.78 17.9785V20.7141H129.022V19.3865L128.466 20.0101H128.239L127.683 19.3865V20.7141H126.924V17.9785H127.192L128.352 19.1451L129.512 17.9785H129.78Z" fill="black"/>
</g>
</svg>
