<svg width="152" height="55" viewBox="0 0 152 55" fill="none" xmlns="http://www.w3.org/2000/svg">
<g id="Mask group">
<mask id="mask0_2299_137" style="mask-type:luminance" maskUnits="userSpaceOnUse" x="0" y="0" width="152" height="55">
<g id="Group">
<path id="Vector" d="M151.289 0.179932H0.88916V54.3239H151.289V0.179932Z" fill="white"/>
</g>
</mask>
<g mask="url(#mask0_2299_137)">
<g id="Group_2">
<path id="Vector_2" d="M66.3058 20.8091V38.2143H62.0661V31.0489H55.4708V38.2143H51.231V20.8091H55.4708V27.6274H62.0661V20.8091H66.3058Z" fill="black"/>
<path id="Vector_3" d="M70.5079 22.9413C69.7641 22.9413 69.1525 22.7264 68.6734 22.2967C68.2104 21.8504 67.979 21.3049 67.979 20.6602C67.979 19.9991 68.2104 19.4537 68.6734 19.0238C69.1525 18.5776 69.7641 18.3545 70.5079 18.3545C71.2353 18.3545 71.8305 18.5776 72.293 19.0238C72.7726 19.4537 73.0122 19.9991 73.0122 20.6602C73.0122 21.3049 72.7726 21.8504 72.293 22.2967C71.8305 22.7264 71.2353 22.9413 70.5079 22.9413ZM72.6155 24.3793V38.2143H68.3757V24.3793H72.6155Z" fill="black"/>
<path id="Vector_4" d="M82.4052 34.6192V38.2142H80.2485C78.7114 38.2142 77.5127 37.8422 76.6532 37.0987C75.7939 36.3382 75.3642 35.1069 75.3642 33.4043V27.9H73.6782V24.3793H75.3642V21.0073H79.604V24.3793H82.3804V27.9H79.604V33.4539C79.604 33.8672 79.7033 34.1645 79.9011 34.3464C80.0996 34.5283 80.4305 34.6192 80.8929 34.6192H82.4052Z" fill="black"/>
<path id="Vector_5" d="M96.8182 31.0738C96.8182 31.4705 96.7934 31.8839 96.7438 32.3135H87.149C87.2152 33.1731 87.4874 33.8342 87.9672 34.2971C88.4627 34.7434 89.0658 34.9667 89.7765 34.9667C90.8346 34.9667 91.57 34.5201 91.9836 33.6275H96.4956C96.2647 34.5367 95.8429 35.355 95.2315 36.0822C94.6367 36.8095 93.8847 37.3799 92.9755 37.7929C92.0663 38.2063 91.0496 38.413 89.9254 38.413C88.5703 38.413 87.3633 38.1235 86.306 37.5452C85.2479 36.9666 84.4215 36.1402 83.8259 35.0658C83.2311 33.9914 82.934 32.735 82.934 31.2971C82.934 29.8588 83.2228 28.6028 83.8018 27.5284C84.3967 26.4539 85.2231 25.6275 86.2812 25.049C87.3385 24.4704 88.5537 24.1812 89.9254 24.1812C91.2647 24.1812 92.4544 24.4622 93.4959 25.0242C94.5374 25.5862 95.3473 26.3878 95.9256 27.4292C96.5204 28.4706 96.8182 29.6854 96.8182 31.0738ZM92.4792 29.9582C92.4792 29.2309 92.2318 28.6523 91.7355 28.2225C91.2399 27.7929 90.6195 27.5779 89.8765 27.5779C89.1651 27.5779 88.562 27.7846 88.0657 28.1978C87.5867 28.611 87.2889 29.1978 87.1738 29.9582H92.4792Z" fill="black"/>
<path id="Vector_6" d="M97.2192 31.2971C97.2192 29.8588 97.508 28.6028 98.087 27.5284C98.6818 26.4539 99.5 25.6275 100.542 25.049C101.599 24.4704 102.806 24.1812 104.161 24.1812C105.897 24.1812 107.343 24.6357 108.5 25.5448C109.674 26.4539 110.442 27.7349 110.806 29.3879H106.294C105.913 28.33 105.178 27.801 104.087 27.801C103.31 27.801 102.69 28.1069 102.228 28.7185C101.764 29.3135 101.533 30.1731 101.533 31.2971C101.533 32.4211 101.764 33.2888 102.228 33.9004C102.69 34.4954 103.31 34.7929 104.087 34.7929C105.178 34.7929 105.913 34.2642 106.294 33.206H110.806C110.442 34.8262 109.674 36.0988 108.5 37.0243C107.326 37.9501 105.88 38.413 104.161 38.413C102.806 38.413 101.599 38.1235 100.542 37.5452C99.5 36.9666 98.6818 36.1402 98.087 35.0658C97.508 33.9914 97.2192 32.735 97.2192 31.2971Z" fill="black"/>
<path id="Vector_7" d="M120.587 24.2304C122.174 24.2304 123.447 24.7593 124.406 25.8172C125.364 26.8585 125.843 28.2966 125.843 30.1313V38.2141H121.628V30.7015C121.628 29.776 121.389 29.0569 120.91 28.5445C120.43 28.0321 119.785 27.776 118.975 27.776C118.166 27.776 117.521 28.0321 117.041 28.5445C116.562 29.0569 116.322 29.776 116.322 30.7015V38.2141H112.083V19.8667H116.322V26.2387C116.752 25.6271 117.339 25.1395 118.083 24.7759C118.827 24.4122 119.661 24.2304 120.587 24.2304Z" fill="black"/>
<path id="Vector_8" d="M29.2778 29.1165V14.0662H34.2956V21.8027C35.1714 21.4647 36.1231 21.2793 37.1181 21.2793C41.4482 21.2793 44.9583 24.7896 44.9583 29.1197V38.2144H39.9406V29.1197C39.9406 27.5609 38.6769 26.2971 37.1181 26.2971C35.5599 26.2971 34.2966 27.5597 34.2956 29.1176V29.1197V38.2144H29.2778V29.1197V29.1165Z" fill="black"/>
<path id="Vector_9" d="M39.9399 19.084V14.0662H44.9575V19.084H39.9399Z" fill="black"/>
</g>
</g>
</g>
</svg>
