<svg width="151" height="55" viewBox="0 0 151 55" fill="none" xmlns="http://www.w3.org/2000/svg">
<g id="Mask group">
<mask id="mask0_2299_107" style="mask-type:luminance" maskUnits="userSpaceOnUse" x="-1" y="0" width="152" height="55">
<g id="Group">
<path id="Vector" d="M150.391 0.179932H-0.00927734V54.3239H150.391V0.179932Z" fill="white"/>
</g>
</mask>
<g mask="url(#mask0_2299_107)">
<g id="Group_2">
<path id="Vector_2" d="M61.6392 19.4683H64.8817V36.9275H61.6392V19.4683Z" fill="black"/>
<path id="Vector_3" d="M75.6146 23.459C77.2938 23.459 78.6407 23.9495 79.6551 24.9305C80.6696 25.9116 81.1764 27.3665 81.1764 29.2953V36.9274H78.0586V29.6945C78.0586 28.5304 77.7841 27.6575 77.2359 27.0755C76.687 26.477 75.9056 26.1776 74.8914 26.1776C73.7439 26.1776 72.8376 26.5268 72.1726 27.2252C71.5075 27.907 71.1747 28.8964 71.1747 30.1932V36.9274H68.0571V23.6086H71.0252V25.3296C71.5407 24.7143 72.1893 24.2488 72.9708 23.9329C73.7524 23.6169 74.6336 23.459 75.6146 23.459Z" fill="black"/>
<path id="Vector_4" d="M96.1119 23.6086L90.3997 36.9274H87.1827L81.4712 23.6086H84.7131L88.8536 33.4855L93.119 23.6086H96.1119Z" fill="black"/>
<path id="Vector_5" d="M108.97 30.3428C108.97 30.5592 108.954 30.8665 108.92 31.2658H98.4691C98.6525 32.2467 99.1263 33.0283 99.8909 33.6104C100.673 34.1758 101.637 34.4584 102.784 34.4584C104.248 34.4584 105.453 33.976 106.401 33.0117L108.072 34.9322C107.474 35.6473 106.717 36.1876 105.803 36.5533C104.887 36.9193 103.857 37.1021 102.71 37.1021C101.246 37.1021 99.958 36.8111 98.8436 36.2293C97.7299 35.6473 96.865 34.8406 96.2499 33.8098C95.6506 32.7623 95.3521 31.5816 95.3521 30.2682C95.3521 28.971 95.6431 27.8072 96.2252 26.7762C96.823 25.7286 97.6464 24.9139 98.6939 24.3319C99.7419 23.75 100.922 23.459 102.236 23.459C103.532 23.459 104.688 23.75 105.703 24.3319C106.734 24.8973 107.531 25.7037 108.097 26.7513C108.679 27.7822 108.97 28.9795 108.97 30.3428ZM102.236 25.9532C101.238 25.9532 100.39 26.2524 99.6919 26.8511C99.0097 27.433 98.594 28.2146 98.4443 29.1956H106.002C105.869 28.2312 105.461 27.4497 104.78 26.8511C104.098 26.2524 103.25 25.9532 102.236 25.9532Z" fill="black"/>
<path id="Vector_6" d="M113.685 25.554C114.583 24.1573 116.163 23.7083 118.425 23.7083V26.2026C118.158 26.1526 117.918 26.1277 117.701 26.1277C116.487 26.1277 115.54 26.7097 114.858 27.4247C114.177 28.123 113.835 29.1372 113.835 30.4676V36.9274H110.717V23.6086H113.685V25.554Z" fill="black"/>
<path id="Vector_7" d="M128.941 36.2042C128.575 36.5034 128.127 36.728 127.595 36.8776C127.079 37.0275 126.53 37.1021 125.948 37.1021C124.485 37.1021 123.355 36.7198 122.556 35.9549C121.758 35.19 121.359 34.0758 121.359 32.6127V26.2025H119.165V23.7084H121.359V20.6655H124.477V23.7084H128.043V26.2025H124.477V32.5378C124.477 33.1864 124.635 33.6849 124.95 34.0343C125.266 34.3668 125.724 34.5333 126.322 34.5333C127.021 34.5333 127.603 34.3502 128.068 33.9845L128.941 36.2042Z" fill="black"/>
<path id="Vector_8" fill-rule="evenodd" clip-rule="evenodd" d="M53.4853 28.2494C53.4853 37.083 46.3245 44.2437 37.4909 44.2437C28.6576 44.2437 21.4966 37.083 21.4966 28.2494C21.4966 19.416 28.6576 12.2551 37.4909 12.2551C46.3245 12.2551 53.4853 19.416 53.4853 28.2494ZM48.4586 28.2494C48.4586 34.3065 43.5484 39.2168 37.4913 39.2168C37.0713 39.2168 36.6568 39.1933 36.2491 39.1475C41.7612 38.5683 46.057 33.9061 46.057 28.2403C46.057 22.6032 41.8038 17.9593 36.3315 17.3425C36.7126 17.3024 37.0996 17.2819 37.4913 17.2819C43.5484 17.2819 48.4586 22.1922 48.4586 28.2494ZM33.9493 35.9747C37.564 35.3362 40.3135 32.1204 40.3135 28.2494C40.3135 24.3783 37.564 21.1625 33.9493 20.5242C34.3867 20.4485 34.8366 20.409 35.2956 20.409C39.6257 20.409 43.136 23.9193 43.136 28.2494C43.136 32.5795 39.6257 36.0897 35.2956 36.0897C34.8366 36.0897 34.3867 36.0503 33.9493 35.9747Z" fill="black"/>
</g>
</g>
</g>
</svg>
