<svg width="100" height="100" viewBox="0 0 100 100" fill="none" xmlns="http://www.w3.org/2000/svg">
<path d="M13.1767 68.6H15.9607L17.6047 73.364H17.6407L19.2847 68.6H22.0687V77H20.2327V71.24H20.1847L18.2167 77H17.0287L15.0607 71.24H15.0127V77H13.1767V68.6ZM26.1815 77.108C25.5095 77.108 24.9415 76.956 24.4775 76.652C24.0215 76.34 23.6815 75.936 23.4575 75.44C23.2415 74.936 23.1335 74.396 23.1335 73.82C23.1335 73.244 23.2415 72.708 23.4575 72.212C23.6815 71.708 24.0215 71.3 24.4775 70.988C24.9415 70.676 25.5175 70.52 26.2055 70.52C27.1015 70.52 27.8135 70.804 28.3415 71.372C28.8695 71.932 29.1335 72.748 29.1335 73.82V74.336H24.9335V74.432C24.9335 74.76 25.0455 75.044 25.2695 75.284C25.5015 75.516 25.7935 75.632 26.1455 75.632C26.4175 75.632 26.6495 75.572 26.8415 75.452C27.0335 75.324 27.1695 75.156 27.2495 74.948H29.0855C28.9255 75.58 28.5935 76.1 28.0895 76.508C27.5935 76.908 26.9575 77.108 26.1815 77.108ZM27.3455 73.136C27.3375 72.704 27.2255 72.384 27.0095 72.176C26.8015 71.968 26.5215 71.864 26.1695 71.864C25.8095 71.864 25.5215 71.976 25.3055 72.2C25.0975 72.424 24.9895 72.736 24.9815 73.136H27.3455ZM30.2041 70.652H32.0761V71.576H32.1721C32.3081 71.28 32.5281 71.032 32.8321 70.832C33.1441 70.624 33.5201 70.52 33.9601 70.52C34.7921 70.52 35.3681 70.784 35.6881 71.312C36.0081 71.832 36.1681 72.416 36.1681 73.064V77H34.2961V73.388C34.2961 72.972 34.2041 72.644 34.0201 72.404C33.8361 72.164 33.5641 72.044 33.2041 72.044C32.8201 72.044 32.5361 72.172 32.3521 72.428C32.1681 72.676 32.0761 72.996 32.0761 73.388V77H30.2041V70.652ZM39.8739 72.104V74.648C39.8739 74.928 39.8859 75.136 39.9099 75.272C39.9419 75.4 40.0219 75.504 40.1499 75.584C40.2859 75.664 40.5019 75.704 40.7979 75.704C40.9499 75.704 41.1059 75.688 41.2659 75.656V76.952C41.1859 76.968 41.0259 76.984 40.7859 77C40.5459 77.024 40.3059 77.036 40.0659 77.036C39.4419 77.036 38.9779 76.944 38.6739 76.76C38.3779 76.576 38.1939 76.352 38.1219 76.088C38.0499 75.824 38.0139 75.48 38.0139 75.056V72.104H36.9939V70.652H38.0139V68.6H39.8739V70.652H41.2659V72.104H39.8739ZM45.3302 77.108C44.6582 77.108 44.0902 76.96 43.6262 76.664C43.1702 76.368 42.8302 75.972 42.6062 75.476C42.3822 74.98 42.2702 74.428 42.2702 73.82C42.2702 73.22 42.3822 72.672 42.6062 72.176C42.8302 71.672 43.1702 71.272 43.6262 70.976C44.0902 70.672 44.6582 70.52 45.3302 70.52C46.0022 70.52 46.5662 70.668 47.0222 70.964C47.4862 71.26 47.8302 71.66 48.0542 72.164C48.2782 72.66 48.3902 73.208 48.3902 73.808C48.3902 74.408 48.2782 74.96 48.0542 75.464C47.8302 75.96 47.4862 76.36 47.0222 76.664C46.5662 76.96 46.0022 77.108 45.3302 77.108ZM45.3302 75.608C45.7462 75.608 46.0542 75.436 46.2542 75.092C46.4542 74.748 46.5542 74.316 46.5542 73.796C46.5542 73.276 46.4542 72.852 46.2542 72.524C46.0542 72.188 45.7462 72.02 45.3302 72.02C44.9142 72.02 44.6062 72.188 44.4062 72.524C44.2062 72.86 44.1062 73.284 44.1062 73.796C44.1062 74.316 44.2062 74.748 44.4062 75.092C44.6142 75.436 44.9222 75.608 45.3302 75.608ZM49.518 70.652H51.378V71.66H51.474C51.57 71.38 51.758 71.144 52.038 70.952C52.326 70.752 52.698 70.652 53.154 70.652C53.29 70.652 53.418 70.664 53.538 70.688L53.454 72.404C53.27 72.34 53.058 72.308 52.818 72.308C52.314 72.308 51.946 72.436 51.714 72.692C51.49 72.948 51.378 73.372 51.378 73.964V77H49.518V70.652ZM57.6656 68.6C58.3296 68.6 58.8896 68.736 59.3456 69.008C59.8096 69.28 60.1536 69.64 60.3776 70.088C60.6016 70.536 60.7136 71.02 60.7136 71.54C60.7136 72.052 60.6016 72.528 60.3776 72.968C60.1616 73.4 59.8216 73.748 59.3576 74.012C58.9016 74.276 58.3376 74.408 57.6656 74.408H56.3096V77H54.4736V68.6H57.6656ZM57.3656 72.872C57.7976 72.872 58.1616 72.772 58.4576 72.572C58.7536 72.364 58.9016 72.02 58.9016 71.54C58.9016 71.06 58.7536 70.724 58.4576 70.532C58.1696 70.34 57.8056 70.244 57.3656 70.244H56.3096V72.872H57.3656ZM63.7249 77.108C62.9409 77.108 62.3329 76.812 61.9009 76.22C61.4769 75.62 61.2649 74.82 61.2649 73.82C61.2649 72.812 61.4849 72.012 61.9249 71.42C62.3649 70.82 62.9729 70.52 63.7489 70.52C64.2849 70.52 64.6969 70.64 64.9849 70.88C65.2729 71.112 65.4729 71.348 65.5849 71.588H65.6809V70.652H67.5649V77H65.6809V75.98H65.5849C65.4649 76.236 65.2569 76.488 64.9609 76.736C64.6729 76.984 64.2609 77.108 63.7249 77.108ZM64.4329 75.608C64.8569 75.608 65.1729 75.432 65.3809 75.08C65.5889 74.72 65.6929 74.296 65.6929 73.808C65.6929 73.328 65.5889 72.912 65.3809 72.56C65.1729 72.2 64.8569 72.02 64.4329 72.02C63.9929 72.02 63.6689 72.196 63.4609 72.548C63.2609 72.892 63.1609 73.308 63.1609 73.796C63.1609 74.292 63.2609 74.72 63.4609 75.08C63.6689 75.432 63.9929 75.608 64.4329 75.608ZM71.0474 77.036C70.4154 77.036 69.9474 76.94 69.6434 76.748C69.3474 76.556 69.1634 76.324 69.0914 76.052C69.0194 75.78 68.9834 75.432 68.9834 75.008L68.9954 68H70.8554V74.624C70.8554 74.904 70.8674 75.116 70.8914 75.26C70.9234 75.396 71.0034 75.504 71.1314 75.584C71.2674 75.664 71.4794 75.704 71.7674 75.704C71.9194 75.704 72.0234 75.696 72.0794 75.68V76.976C71.7194 77.016 71.3754 77.036 71.0474 77.036ZM74.4984 77.108C74.2024 77.108 73.9584 77.008 73.7664 76.808C73.5744 76.608 73.4784 76.364 73.4784 76.076C73.4784 75.788 73.5744 75.548 73.7664 75.356C73.9584 75.156 74.2024 75.056 74.4984 75.056C74.7944 75.056 75.0384 75.156 75.2304 75.356C75.4304 75.548 75.5304 75.788 75.5304 76.076C75.5304 76.364 75.4304 76.608 75.2304 76.808C75.0304 77.008 74.7864 77.108 74.4984 77.108ZM79.3577 77.108C78.5737 77.108 77.9657 76.812 77.5337 76.22C77.1097 75.62 76.8977 74.82 76.8977 73.82C76.8977 72.812 77.1177 72.012 77.5577 71.42C77.9977 70.82 78.6057 70.52 79.3817 70.52C79.9177 70.52 80.3297 70.64 80.6177 70.88C80.9057 71.112 81.1057 71.348 81.2177 71.588H81.3137V70.652H83.1977V77H81.3137V75.98H81.2177C81.0977 76.236 80.8897 76.488 80.5937 76.736C80.3057 76.984 79.8937 77.108 79.3577 77.108ZM80.0657 75.608C80.4897 75.608 80.8057 75.432 81.0137 75.08C81.2217 74.72 81.3257 74.296 81.3257 73.808C81.3257 73.328 81.2217 72.912 81.0137 72.56C80.8057 72.2 80.4897 72.02 80.0657 72.02C79.6257 72.02 79.3017 72.196 79.0937 72.548C78.8937 72.892 78.7937 73.308 78.7937 73.796C78.7937 74.292 78.8937 74.72 79.0937 75.08C79.3017 75.432 79.6257 75.608 80.0657 75.608ZM84.7482 70.652H86.6082V77H84.7482V70.652ZM85.6722 69.596C85.3842 69.596 85.1442 69.5 84.9522 69.308C84.7602 69.108 84.6642 68.868 84.6642 68.588C84.6642 68.3 84.7602 68.06 84.9522 67.868C85.1442 67.668 85.3842 67.568 85.6722 67.568C85.9602 67.568 86.2002 67.668 86.3922 67.868C86.5922 68.06 86.6922 68.3 86.6922 68.588C86.6922 68.868 86.5922 69.108 86.3922 69.308C86.2002 69.5 85.9602 69.596 85.6722 69.596Z" fill="#3766E8"/>
<path fill-rule="evenodd" clip-rule="evenodd" d="M59.0637 53.032C55.0492 57.3202 49.3376 60 43 60C30.8497 60 21 50.1503 21 38C21 25.8497 30.8497 16 43 16C50.8077 16 57.6654 20.0672 61.57 26.1985L51 35.5001C50.5 36 49.6466 36.1826 49 35.5001C46 32.3334 39.5 25.5001 37.5 23.5001C35 21.5 33.5 23.5 33.5 24.5001V49.0001C33.5 53.8001 38.8333 54.3334 41.5 54.0001C41.6667 49.8335 42 41.2001 42 40.0001C42 39.5001 42 39.0001 42.5 39.5001C44 41.3334 47.3 45.3001 48.5 46.5001C49.7 47.7001 51 47.0001 51.5 46.5001C53 44.8334 56.3 41.2001 57.5 40.0001C58.7 38.8001 59 39.5001 59 40.0001V53.0001L59.0637 53.032Z" fill="#3766E8"/>
<rect x="66" y="43" width="10" height="10" rx="1" fill="#3766E8"/>
<rect x="77" y="36" width="6" height="6" rx="1" fill="#3766E8"/>
<path d="M66 30L67 29H72L73 30V35L72 36H67L66 35V30Z" fill="#3766E8"/>
<circle cx="74" cy="27" r="2" fill="#3766E8"/>
</svg>
