<svg width="151" height="55" viewBox="0 0 151 55" fill="none" xmlns="http://www.w3.org/2000/svg">
<g id="Mask group">
<mask id="mask0_2299_118" style="mask-type:luminance" maskUnits="userSpaceOnUse" x="0" y="0" width="151" height="55">
<g id="Group">
<path id="Vector" d="M150.69 0.179932H0.289551V54.3239H150.69V0.179932Z" fill="white"/>
</g>
</mask>
<g mask="url(#mask0_2299_118)">
<g id="Group_2">
<path id="Vector_2" d="M30.2571 42.8235H20.1373L30.2571 27.5203H40.377L30.2571 42.8235Z" fill="black"/>
<path id="Vector_3" d="M26.5547 11.7236H36.9213L26.5547 27.5203H16.188L26.5547 11.7236Z" fill="black"/>
<path id="Vector_4" d="M61.022 25.0363C61.022 25.9747 60.7958 26.8546 60.3433 27.6759C59.9075 28.4969 59.2121 29.1589 58.257 29.6617C57.3184 30.1644 56.1287 30.4158 54.6875 30.4158H51.7461V37.1525H48.2271V19.6067H54.6875C56.0449 19.6067 57.2011 19.8413 58.1563 20.3105C59.1117 20.7797 59.8237 21.4249 60.2931 22.2461C60.7792 23.0672 61.022 23.9974 61.022 25.0363ZM54.5364 27.5752C55.5085 27.5752 56.229 27.3575 56.6984 26.9215C57.1676 26.4693 57.4022 25.8408 57.4022 25.0363C57.4022 23.327 56.447 22.4723 54.5364 22.4723H51.7461V27.5752H54.5364Z" fill="black"/>
<path id="Vector_5" d="M66.0334 25.3883C66.4859 24.651 67.0723 24.0727 67.793 23.6538C68.5304 23.2349 69.3682 23.0254 70.3068 23.0254V26.7205H69.3766C68.2706 26.7205 67.4327 26.9802 66.863 27.5C66.31 28.0195 66.0334 28.9243 66.0334 30.2147V37.1526H62.5142V23.2265H66.0334V25.3883Z" fill="black"/>
<path id="Vector_6" d="M77.8555 37.3788C76.5147 37.3788 75.3079 37.0856 74.2355 36.4992C73.163 35.8959 72.3165 35.0494 71.6967 33.9601C71.0933 32.8707 70.7916 31.6141 70.7916 30.1895C70.7916 28.7652 71.1017 27.5082 71.7219 26.419C72.3587 25.3296 73.2216 24.4917 74.311 23.9052C75.4003 23.3018 76.6155 23.0002 77.9563 23.0002C79.2964 23.0002 80.5116 23.3018 81.6005 23.9052C82.6902 24.4917 83.5444 25.3296 84.1648 26.419C84.8018 27.5082 85.1199 28.7652 85.1199 30.1895C85.1199 31.6141 84.7935 32.8707 84.14 33.9601C83.5031 35.0494 82.6315 35.8959 81.5253 36.4992C80.4364 37.0856 79.2129 37.3788 77.8555 37.3788ZM77.8555 34.3119C78.4917 34.3119 79.0873 34.1612 79.64 33.8597C80.2101 33.5413 80.6628 33.0719 80.9974 32.4519C81.3328 31.8318 81.5005 31.0777 81.5005 30.1895C81.5005 28.8656 81.1486 27.8518 80.4447 27.1478C79.7574 26.4272 78.9114 26.0671 77.9059 26.0671C76.9005 26.0671 76.0538 26.4272 75.3669 27.1478C74.6963 27.8518 74.3614 28.8656 74.3614 30.1895C74.3614 31.5134 74.688 32.5358 75.3417 33.2564C76.0116 33.9601 76.8501 34.3119 77.8555 34.3119Z" fill="black"/>
<path id="Vector_7" d="M90.2172 34.3623H93.9967V37.1525H86.6978V17.4448H90.2172V34.3623Z" fill="black"/>
<path id="Vector_8" d="M96.725 21.5674C96.1054 21.5674 95.5858 21.3747 95.1669 20.9892C94.7646 20.587 94.563 20.0927 94.563 19.5061C94.563 18.9195 94.7646 18.4336 95.1669 18.0481C95.5858 17.646 96.1054 17.4448 96.725 17.4448C97.3454 17.4448 97.8561 17.646 98.2584 18.0481C98.6772 18.4336 98.887 18.9195 98.887 19.5061C98.887 20.0927 98.6772 20.587 98.2584 20.9892C97.8561 21.3747 97.3454 21.5674 96.725 21.5674ZM98.4592 23.2265V37.1525H94.9406V23.2265H98.4592Z" fill="black"/>
<path id="Vector_9" d="M108.65 23.0254C110.309 23.0254 111.65 23.5533 112.672 24.6091C113.694 25.648 114.205 27.1061 114.205 28.9829V37.1526H110.686V29.4607C110.686 28.3545 110.409 27.5083 109.856 26.9215C109.303 26.3183 108.549 26.0167 107.594 26.0167C106.622 26.0167 105.851 26.3183 105.281 26.9215C104.728 27.5083 104.452 28.3545 104.452 29.4607V37.1526H100.932V23.2265H104.452V24.961C104.921 24.3577 105.516 23.8884 106.237 23.5533C106.974 23.2013 107.778 23.0254 108.65 23.0254Z" fill="black"/>
<path id="Vector_10" d="M129.49 29.888C129.49 30.3906 129.457 30.8432 129.39 31.2454H119.209C119.292 32.2509 119.645 33.0384 120.265 33.6082C120.885 34.1781 121.648 34.463 122.552 34.463C123.859 34.463 124.79 33.9014 125.343 32.7787H129.138C128.736 34.1194 127.965 35.2253 126.826 36.097C125.686 36.9515 124.287 37.3788 122.628 37.3788C121.287 37.3788 120.081 37.0856 119.008 36.4992C117.952 35.8959 117.123 35.0494 116.519 33.9601C115.933 32.8707 115.639 31.6141 115.639 30.1895C115.639 28.7483 115.933 27.4831 116.519 26.3938C117.106 25.3045 117.927 24.4665 118.983 23.8801C120.038 23.2935 121.254 23.0002 122.628 23.0002C123.952 23.0002 125.133 23.2851 126.172 23.8549C127.228 24.4247 128.041 25.2374 128.61 26.2934C129.197 27.3323 129.49 28.5303 129.49 29.888ZM125.845 28.8825C125.829 27.9774 125.502 27.2568 124.865 26.7204C124.229 26.1675 123.449 25.8911 122.528 25.8911C121.656 25.8911 120.918 26.1592 120.315 26.6955C119.729 27.215 119.368 27.9439 119.234 28.8825H125.845Z" fill="black"/>
</g>
</g>
</g>
</svg>
