<svg width="152" height="55" viewBox="0 0 152 55" fill="none" xmlns="http://www.w3.org/2000/svg">
<g id="Mask group">
<mask id="mask0_2299_149" style="mask-type:luminance" maskUnits="userSpaceOnUse" x="0" y="0" width="152" height="55">
<g id="Group">
<path id="Vector" d="M151.09 0.179932H0.689941V54.3239H151.09V0.179932Z" fill="white"/>
</g>
</mask>
<g mask="url(#mask0_2299_149)">
<g id="Group_2">
<path id="Vector_2" d="M62.6249 35.9615C62.2517 35.6416 62.0376 35.3064 62.0178 34.9542L62.6249 35.9615ZM62.6249 35.9615L62.6268 35.9631C63.0326 36.2952 63.6043 36.4535 64.3269 36.4535H65.9082H66.0138V36.3479V36.1405V36.0349H65.9082H65.1141L64.8384 35.9847L64.8334 35.9838L64.8281 35.9835C64.6637 35.9697 64.4809 35.8583 64.2821 35.6109C64.1102 35.3588 64.0177 34.9953 64.0177 34.5073V26.3932C64.0177 25.528 63.7966 24.8114 63.3463 24.2529L63.345 24.2512C63.0502 23.9011 62.5879 23.6424 61.9726 23.4663C61.3708 23.2719 60.5899 23.1766 59.6346 23.1766C58.6574 23.1766 57.7614 23.5148 56.9495 24.1855C56.3002 24.7078 55.812 25.2675 55.4889 25.8654V23.386V23.2803H55.383H53.5684H53.4627V23.386V36.3479V36.4535H53.5684H55.383H55.4889V36.3479V27.145C55.4889 26.4976 55.9036 25.746 56.7791 24.8873L56.7801 24.8866C57.6444 24.0223 58.6119 23.5955 59.6864 23.5955C60.2104 23.5955 60.6422 23.6798 60.9866 23.8433C61.6402 24.1954 61.9918 25.014 61.9918 26.3673V34.5073V34.5104V34.5135L62.0178 34.9542L62.6249 35.9615ZM51.8285 19.3887L51.926 19.4261L51.9646 19.3293L52.0684 19.0701L52.1101 18.9659L52.0038 18.9305C50.2309 18.3396 48.4828 18.0437 46.7595 18.0437C45.0512 18.0437 43.7507 18.4443 42.8767 19.2644C42.0061 20.0641 41.5726 21.1131 41.5726 22.4009C41.5726 24.0258 42.2466 25.2861 43.5898 26.1701C44.1825 26.5709 44.8355 26.9364 45.5483 27.2669L45.5506 27.2677C46.2593 27.579 46.9596 27.8816 47.6514 28.1755L47.6524 28.1759C48.3567 28.4681 49.0006 28.7857 49.5833 29.1285C50.8688 29.8896 51.5017 30.9372 51.5017 32.2778C51.5017 33.5059 51.0165 34.4307 50.0459 35.0668C49.0812 35.693 47.9095 36.0089 46.5262 36.0089C45.5866 36.0089 44.6639 35.8725 43.7582 35.599C42.8685 35.3079 42.1463 34.9416 41.5883 34.5019L41.4958 34.4292L41.4331 34.5292L41.3036 34.7366L41.2505 34.8215L41.3324 34.8792C42.8566 35.9477 44.6934 36.4796 46.8373 36.4796C47.9855 36.4796 48.9903 36.3492 49.8495 36.086L49.8508 36.0857C50.7361 35.8025 51.4879 35.2709 52.1048 34.4954C52.726 33.7144 53.0352 32.7746 53.0352 31.6816C53.0352 30.5824 52.8521 29.674 52.4789 28.9628C52.1088 28.2406 51.6224 27.6733 51.0184 27.2648C50.425 26.8634 49.7715 26.5062 49.0574 26.1927C48.3467 25.8806 47.6358 25.6032 46.9248 25.3604C46.2374 25.1025 45.6023 24.8278 45.019 24.5363C43.7334 23.8594 43.1063 22.9153 43.1063 21.7009C43.1063 20.6947 43.4817 19.9146 44.2309 19.3485C44.9839 18.7794 46.0385 18.4884 47.4078 18.4884C48.7921 18.4884 50.2658 18.7875 51.8285 19.3887ZM66.5677 24.9963C65.3678 26.2138 64.7741 27.9206 64.7741 30.1003C64.7741 32.2781 65.3493 33.9105 66.5197 34.9746C67.6832 36.032 69.1876 36.5574 71.0238 36.5574C72.8807 36.5574 74.4124 35.9518 75.6095 34.7375C76.8269 33.5201 77.4293 31.8136 77.4293 29.6337C77.4293 27.4559 76.854 25.8235 75.6835 24.7595C74.5196 23.7016 73.0065 23.1766 71.1533 23.1766C69.3131 23.1766 67.7816 23.7823 66.5677 24.9963ZM68.0235 25.3157C68.8702 24.1642 69.9293 23.5955 71.2051 23.5955C72.4874 23.5955 73.5107 24.0827 74.2851 25.059C75.0584 26.0341 75.4545 27.5523 75.4545 29.6337C75.4545 31.694 75.0252 33.2936 74.1794 34.4443C73.333 35.5786 72.2742 36.1387 70.9978 36.1387C69.7157 36.1387 68.6921 35.6514 67.9177 34.6751C67.1444 33.6997 66.7483 32.19 66.7483 30.1262C66.7483 28.048 67.1779 26.4488 68.0235 25.3157ZM95.0915 23.4668L95.0148 23.544L95.0945 23.6187C95.3434 23.852 95.4758 24.2004 95.4758 24.6822C95.4758 25.1686 95.375 25.5819 95.178 25.9259L95.1765 25.9299L95.1742 25.9341L91.5225 33.8427L87.6444 23.3494L87.6189 23.2803H87.5452H85.7306H85.5787L85.6313 23.4223L86.5751 25.9998L82.967 33.8424L79.0897 23.3494L79.0634 23.2803H78.9897H77.1751H77.0232L77.0766 23.4229L81.8984 36.3849L81.924 36.4535H81.9969H82.2564H82.3248L82.3526 36.3918L86.809 26.5923L90.4532 36.3849L90.4787 36.4535H90.5524H90.8111H90.8795L90.9074 36.3918L95.6262 26.0222L95.6269 26.0201C95.839 25.5246 95.9465 25.0352 95.9465 24.5526C95.9465 24.4234 95.9285 24.2871 95.8931 24.1441C95.8713 23.985 95.7931 23.8163 95.6698 23.6395C95.6171 23.5519 95.5675 23.4789 95.5201 23.422C95.4735 23.3661 95.4231 23.3184 95.369 23.2914L95.3013 23.2574L95.2472 23.3112L95.0915 23.4668Z" fill="black"/>
<path id="Vector_3" d="M62.6249 35.9615C62.2517 35.6416 62.0376 35.3064 62.0178 34.9542M62.6249 35.9615L62.0178 34.9542M62.6249 35.9615L62.6268 35.9631C63.0326 36.2952 63.6043 36.4535 64.3269 36.4535H65.9082H66.0138V36.3479V36.1405V36.0349H65.9082H65.1141L64.8384 35.9847L64.8334 35.9838L64.8281 35.9835C64.6637 35.9697 64.4809 35.8583 64.2821 35.6109C64.1102 35.3588 64.0177 34.9953 64.0177 34.5073V26.3932C64.0177 25.528 63.7966 24.8114 63.3463 24.2529L63.345 24.2512C63.0502 23.9011 62.5879 23.6424 61.9726 23.4663C61.3708 23.2719 60.5899 23.1766 59.6346 23.1766C58.6574 23.1766 57.7614 23.5148 56.9495 24.1855C56.3002 24.7078 55.812 25.2675 55.4889 25.8654V23.386V23.2803H55.383H53.5684H53.4627V23.386V36.3479V36.4535H53.5684H55.383H55.4889V36.3479V27.145C55.4889 26.4976 55.9036 25.746 56.7791 24.8873L56.7801 24.8866C57.6444 24.0223 58.6119 23.5955 59.6864 23.5955C60.2104 23.5955 60.6422 23.6798 60.9866 23.8433C61.6402 24.1954 61.9918 25.014 61.9918 26.3673V34.5073V34.5104V34.5135L62.0178 34.9542M51.8285 19.3887L51.926 19.4261L51.9646 19.3293L52.0684 19.0701L52.1101 18.9659L52.0038 18.9305C50.2309 18.3396 48.4828 18.0437 46.7595 18.0437C45.0512 18.0437 43.7507 18.4443 42.8767 19.2644C42.0061 20.0641 41.5726 21.1131 41.5726 22.4009C41.5726 24.0258 42.2466 25.2861 43.5898 26.1701C44.1825 26.5709 44.8355 26.9364 45.5483 27.2669L45.5506 27.2677C46.2593 27.579 46.9596 27.8816 47.6514 28.1755L47.6524 28.1759C48.3567 28.4681 49.0006 28.7857 49.5833 29.1285C50.8688 29.8896 51.5017 30.9372 51.5017 32.2778C51.5017 33.5059 51.0165 34.4307 50.0459 35.0668C49.0812 35.693 47.9095 36.0089 46.5262 36.0089C45.5866 36.0089 44.6639 35.8725 43.7582 35.599C42.8685 35.3079 42.1463 34.9416 41.5883 34.5019L41.4958 34.4292L41.4331 34.5292L41.3036 34.7366L41.2505 34.8215L41.3324 34.8792C42.8566 35.9477 44.6934 36.4796 46.8373 36.4796C47.9855 36.4796 48.9903 36.3492 49.8495 36.086L49.8508 36.0857C50.7361 35.8025 51.4879 35.2709 52.1048 34.4954C52.726 33.7144 53.0352 32.7746 53.0352 31.6816C53.0352 30.5824 52.8521 29.674 52.4789 28.9628C52.1088 28.2406 51.6224 27.6733 51.0184 27.2648C50.425 26.8634 49.7715 26.5062 49.0574 26.1927C48.3467 25.8806 47.6358 25.6032 46.9248 25.3604C46.2374 25.1025 45.6023 24.8278 45.019 24.5363C43.7334 23.8594 43.1063 22.9153 43.1063 21.7009C43.1063 20.6947 43.4817 19.9146 44.2309 19.3485C44.9839 18.7794 46.0385 18.4884 47.4078 18.4884C48.7921 18.4884 50.2658 18.7875 51.8285 19.3887ZM66.5677 24.9963C65.3678 26.2138 64.7741 27.9206 64.7741 30.1003C64.7741 32.2781 65.3493 33.9105 66.5197 34.9746C67.6832 36.032 69.1876 36.5574 71.0238 36.5574C72.8807 36.5574 74.4124 35.9518 75.6095 34.7375C76.8269 33.5201 77.4293 31.8136 77.4293 29.6337C77.4293 27.4559 76.854 25.8235 75.6835 24.7595C74.5196 23.7016 73.0065 23.1766 71.1533 23.1766C69.3131 23.1766 67.7816 23.7823 66.5677 24.9963ZM68.0235 25.3157C68.8702 24.1642 69.9293 23.5955 71.2051 23.5955C72.4874 23.5955 73.5107 24.0827 74.2851 25.059C75.0584 26.0341 75.4545 27.5523 75.4545 29.6337C75.4545 31.694 75.0252 33.2936 74.1794 34.4443C73.333 35.5786 72.2742 36.1387 70.9978 36.1387C69.7157 36.1387 68.6921 35.6514 67.9177 34.6751C67.1444 33.6997 66.7483 32.19 66.7483 30.1262C66.7483 28.048 67.1779 26.4488 68.0235 25.3157ZM95.0915 23.4668L95.0148 23.544L95.0945 23.6187C95.3434 23.852 95.4758 24.2004 95.4758 24.6822C95.4758 25.1686 95.375 25.5819 95.178 25.9259L95.1765 25.9299L95.1742 25.9341L91.5225 33.8427L87.6444 23.3494L87.6189 23.2803H87.5452H85.7306H85.5787L85.6313 23.4223L86.5751 25.9998L82.967 33.8424L79.0897 23.3494L79.0634 23.2803H78.9897H77.1751H77.0232L77.0766 23.4229L81.8984 36.3849L81.924 36.4535H81.9969H82.2564H82.3248L82.3526 36.3918L86.809 26.5923L90.4532 36.3849L90.4787 36.4535H90.5524H90.8111H90.8795L90.9074 36.3918L95.6262 26.0222L95.6269 26.0201C95.839 25.5246 95.9465 25.0352 95.9465 24.5526C95.9465 24.4234 95.9285 24.2871 95.8931 24.1441C95.8713 23.985 95.7931 23.8163 95.6698 23.6395C95.6171 23.5519 95.5675 23.4789 95.5201 23.422C95.4735 23.3661 95.4231 23.3184 95.369 23.2914L95.3013 23.2574L95.2472 23.3112L95.0915 23.4668Z" stroke="black" stroke-width="0.211469"/>
<path id="Vector_4" d="M99.96 18.3886C100.446 17.6428 101.236 17.0651 102.331 17.014L102.103 34.6876V34.6889C102.103 34.8488 102.152 35.0206 102.243 35.2029C102.669 36.0543 103.684 36.4535 105.215 36.4535H106.019H106.125V36.3478V36.1405V36.0349H106.019H105.225L104.949 35.9847L104.944 35.9837L104.939 35.9834C104.774 35.9697 104.592 35.8583 104.393 35.6109C104.221 35.3587 104.128 34.9952 104.128 34.5073V16.9309V16.8269L104.025 16.8252L102.44 16.7993L102.334 16.7976V16.8007C100.56 16.8326 99.2478 17.2498 98.4236 18.0742C97.5814 18.8988 97.1738 20.2734 97.1738 22.1675V23.2803H96.7354H96.6294V23.386V23.8049V23.9106H96.7354H97.1738V36.3478V36.4535H97.2798H99.0944H99.1997V36.3478V23.9106H101.142H101.247V23.8049V23.386V23.2803H101.142H99.1997V22.1675C99.1997 20.3924 99.4591 19.1392 99.96 18.3886ZM113.765 30.011C113.411 29.9827 113.023 29.9686 112.6 29.9686C112.13 29.9686 111.618 29.9947 111.063 30.0467C109.944 30.1161 109.019 30.2463 108.289 30.4387C107.561 30.6308 107.016 30.8873 106.669 31.216C106.335 31.5323 106.12 31.834 106.043 32.121C105.972 32.3875 105.935 32.6388 105.935 32.8743C105.935 33.0872 105.954 33.3001 105.989 33.5128C106.138 34.5167 106.531 35.2825 107.175 35.7956C107.817 36.3077 108.697 36.5574 109.8 36.5574C110.748 36.5574 111.573 36.362 112.27 35.9668C112.865 35.6294 113.363 35.1489 113.765 34.5279V34.6889C113.765 35.0118 113.992 35.3666 114.392 35.7489C114.856 36.2299 115.698 36.4535 116.878 36.4535H117.681H117.787V36.3478V36.1405V36.0349H117.681H116.887L116.612 35.9847L116.606 35.9837L116.601 35.9834C116.436 35.9697 116.254 35.8583 116.055 35.6109C115.883 35.3587 115.79 34.9952 115.79 34.5073V25.8229C115.79 25.2384 115.553 24.6872 115.09 24.1711C114.786 23.831 114.329 23.5832 113.73 23.4201C113.13 23.2569 112.381 23.1766 111.485 23.1766C109.879 23.1766 108.3 23.5346 106.749 24.2491L106.644 24.2974L106.702 24.3977L106.805 24.5791L106.857 24.6705L106.949 24.6187C107.334 24.4008 107.946 24.1789 108.791 23.9548L108.792 23.9544C109.65 23.7141 110.392 23.5954 111.019 23.5954C111.65 23.5954 112.153 23.6809 112.532 23.8459L112.536 23.8474C112.924 23.9993 113.178 24.1793 113.317 24.3795C113.467 24.5969 113.584 24.822 113.668 25.0548L113.669 25.0592L113.671 25.0635C113.77 25.2774 113.795 25.442 113.768 25.5653C113.749 25.6365 113.739 25.7 113.739 25.7516C113.739 25.7774 113.741 25.8067 113.752 25.8347C113.755 25.8437 113.759 25.8531 113.765 25.8624V30.011ZM108.013 33.4874V33.4858C107.996 33.3155 107.988 33.1637 107.988 33.0298C107.988 32.2878 108.182 31.7198 108.556 31.3125C108.738 31.1146 109.033 30.9405 109.453 30.7965C109.871 30.6529 110.405 30.5418 111.057 30.4646C111.519 30.4132 111.982 30.3875 112.445 30.3875C112.892 30.3875 113.332 30.4023 113.765 30.4321V33.4657C113.715 34.0111 113.343 34.5997 112.609 35.2308C111.902 35.8373 111.105 36.1386 110.215 36.1386C109.55 36.1386 109.043 35.9194 108.683 35.4891C108.318 35.0548 108.09 34.3925 108.013 33.4874ZM119.991 16.905V16.7993H119.885H118.07H117.965V16.905V36.3478V36.4535H118.07H119.885H119.991V36.3478V30.1399L120.575 29.4695L125.293 36.4074L125.325 36.4535H125.381H127.196H127.395L127.283 36.2886L121.756 28.1645L125.927 23.4561L126.083 23.2803H125.848H125.589H125.542L125.509 23.3158L119.991 29.5366V16.905ZM137.365 35.4249L137.324 35.3314L137.229 35.3678C135.895 35.8809 134.37 36.1386 132.653 36.1386C131.46 36.1386 130.497 35.6538 129.756 34.6772C129.033 33.7019 128.662 32.1572 128.662 30.0225C128.662 29.5586 128.685 29.1099 128.729 28.6765H137.889H137.995V28.5707V28.5688V28.5677V28.5657V28.5646V28.5627V28.5616V28.5596V28.5576V28.5566V28.5555V28.5535V28.5516V28.5505V28.5485V28.5475V28.5464V28.5444V28.5424V28.5404V28.5384V28.5373V28.5363V28.5343V28.5333V28.5313V28.5292V28.5272V28.5252V28.5242V28.5222V28.5212V28.5201V28.5191V28.5171V28.5151V28.514V28.512V28.51V28.5079V28.506V28.5049V28.5029V28.5009V28.4988V28.4968V28.4948V28.4928V28.4918V28.4907V28.4897V28.4877V28.4857V28.4837V28.4827V28.4816V28.4806V28.4786V28.4766V28.4746V28.4735V28.4715V28.4695V28.4675V28.4664V28.4645V28.4634V28.4624V28.4604V28.4594V28.4573V28.4553V28.4533V28.4512V28.4492V28.4482V28.4462V28.4442V28.4421V28.4401V28.4391V28.4371V28.4351V28.434V28.433V28.431V28.43V28.428V28.426V28.4249V28.4239V28.4219V28.4209V28.4189V28.4168V28.4148V28.4128V28.4118V28.4097V28.4078V28.4067V28.4057V28.4036V28.4017V28.4006V28.3986V28.3976V28.3956V28.3945V28.3925V28.3915V28.3895V28.3885V28.3864V28.3845V28.3834V28.3824V28.3804V28.3794V28.3773V28.3753V28.3733V28.3713V28.3703V28.3682V28.3662V28.3642V28.3622V28.3612V28.3601V28.3591V28.3571V28.3551V28.353V28.351V28.35V28.348V28.3469V28.345V28.3439V28.3419V28.3409V28.3389V28.3378V28.3358V28.3338V28.3318V28.3297V28.3278V28.3267V28.3247V28.3236V28.3217V28.3206V28.3186V28.3176V28.3156V28.3136V28.3125V28.3115C137.995 26.6313 137.504 25.3454 136.507 24.473C135.518 23.6075 134.3 23.1766 132.86 23.1766C131.07 23.1766 129.59 23.7831 128.429 24.9979C127.264 26.2156 126.688 27.9215 126.688 30.1003C126.688 32.2768 127.237 33.9086 128.354 34.9727C129.466 36.0314 130.902 36.5574 132.653 36.5574C134.409 36.5574 135.986 36.2879 137.383 35.7466L137.485 35.7071L137.442 35.6064L137.365 35.4249ZM135.084 24.7473C135.672 25.4989 135.989 26.663 136.019 28.2577H128.782C128.996 26.8086 129.469 25.6776 130.191 24.8562C130.952 24.0102 131.807 23.5954 132.756 23.5954C133.708 23.5954 134.481 23.9772 135.084 24.7473Z" fill="black" stroke="black" stroke-width="0.211469"/>
<path id="Vector_5" d="M140.283 16.6328V17.3176H139.505V19.4013H138.766V17.3176H137.987V16.6328H140.283Z" fill="black"/>
<path id="Vector_6" d="M143.316 16.5913V19.4138H142.577V18.0441L142.036 18.6874H141.814L141.273 18.0441V19.4138H140.534V16.5913H140.795L141.925 17.795L143.055 16.5913H143.316Z" fill="black"/>
<path id="Vector_7" fill-rule="evenodd" clip-rule="evenodd" d="M21.1589 31.8384L21.1476 40.7396L23.0293 40.7421L23.0406 31.7993L26.4732 40.0572L28.2107 39.3349L24.8017 31.1338L31.0736 37.4219L32.4059 36.0928L26.1071 29.7779L34.3453 33.1969L35.0663 31.4588L26.8273 28.0395H35.7478V26.1578H26.8487L35.0741 22.7608L34.3556 21.0215L26.1655 24.4041L32.4633 18.1706L31.1398 16.8333L24.7637 23.1441L28.1997 14.857L26.4614 14.1363L23.0526 22.358L23.0639 13.4577L21.1822 13.4553L21.1709 22.3989L17.7379 14.1404L16.0004 14.8626L19.4091 23.0629L13.1375 16.7754L11.8053 18.1043L18.1044 24.4194L9.86608 21.0003L9.14484 22.7383L17.3843 26.1578H8.46338V28.0395H17.3631L9.13747 31.4367L9.85571 33.1759L18.0455 29.7935L11.7478 36.0269L13.0715 37.3642L19.4473 31.0537L16.0115 39.3403L17.7497 40.061L21.1589 31.8384Z" fill="black"/>
</g>
</g>
</g>
</svg>
